<svg id="Layer_1" data-name="Layer 1" xmlns="http://www.w3.org/2000/svg" viewBox="0 0 492.66 375.26"><defs><style>.cls-1{fill:#b3b3b3;}.cls-2{fill:#3d4752;}.cls-3{fill:#d2e5b3;}.cls-4{fill:none;stroke:#3d4752;stroke-miterlimit:10;stroke-width:0.9px;}.cls-5{fill:#d6d6d6;}.cls-6{fill:#fff;}.cls-7{opacity:0;}</style></defs><title>local-area-network-diagram</title><rect class="cls-1" y="152.77" width="21.06" height="8.01"/><rect class="cls-1" x="22.86" y="152.77" width="20.97" height="8.01"/><rect class="cls-1" x="45.99" y="152.77" width="20.97" height="8.01"/><rect class="cls-1" x="68.85" y="152.77" width="21.06" height="8.01"/><rect class="cls-1" x="0.18" y="162.23" width="10.26" height="8.37"/><rect class="cls-1" x="12.6" y="162.23" width="21.06" height="8.06"/><rect class="cls-1" x="36.09" y="162.23" width="20.97" height="8.06"/><rect class="cls-1" x="59.67" y="162.23" width="21.06" height="8.06"/><rect class="cls-1" x="82.44" y="162.23" width="7.29" height="8.37"/><rect class="cls-1" y="172.22" width="21.06" height="7.96"/><rect class="cls-1" x="22.86" y="172.22" width="21.06" height="7.96"/><rect class="cls-1" x="45.99" y="172.22" width="21.06" height="7.96"/><rect class="cls-1" x="68.94" y="172.22" width="21.06" height="7.96"/><rect class="cls-1" x="0.18" y="181.8" width="10.26" height="8.37"/><rect class="cls-1" x="12.6" y="181.8" width="21.06" height="8.05"/><rect class="cls-1" x="36.09" y="181.8" width="21.06" height="8.05"/><rect class="cls-1" x="59.76" y="181.8" width="20.97" height="8.05"/><rect class="cls-1" x="82.53" y="181.8" width="7.29" height="8.37"/><rect class="cls-1" y="191.48" width="21.06" height="8.01"/><rect class="cls-1" x="22.86" y="191.48" width="21.06" height="8.01"/><rect class="cls-1" x="45.99" y="191.48" width="21.06" height="8.01"/><rect class="cls-1" x="68.94" y="191.48" width="21.06" height="8.01"/><rect class="cls-1" x="0.18" y="200.39" width="10.26" height="8.37"/><rect class="cls-1" x="12.6" y="200.39" width="21.06" height="8.05"/><rect class="cls-1" x="36.09" y="200.39" width="21.06" height="8.05"/><rect class="cls-1" x="59.76" y="200.39" width="20.97" height="8.05"/><rect class="cls-1" x="82.53" y="200.39" width="7.29" height="8.37"/><rect class="cls-1" y="210.06" width="21.06" height="8.01"/><rect class="cls-1" x="22.86" y="210.06" width="21.06" height="8.01"/><rect class="cls-1" x="45.99" y="210.06" width="21.06" height="8.01"/><rect class="cls-1" x="68.94" y="210.06" width="21.06" height="8.01"/><polyline class="cls-2" points="32.12 227.25 31.33 227.25 31.33 224.43 31.33 221.61 34.85 221.61 34.85 221.96 34.85 222.3 32.12 222.3 32.12 223.18 32.12 224.06 34.67 224.06 34.67 224.4 34.67 224.73 32.12 224.73 32.12 225.99 32.12 227.25"/><path class="cls-2" d="M38.78,223.94a0.5,0.5,0,0,1,.5.49,0.5,0.5,0,1,1-.5-0.49m0.37,5.62H38.41v-3.78h0.75v3.78Z" transform="translate(-2.59 -2.31)"/><path class="cls-2" d="M40.46,229.56c0-1.26,0-2.56,0-3.78h0.71c0,0.16,0,.47,0,0.64h0a1.28,1.28,0,0,1,1.45-.71l0,0.69a1.08,1.08,0,0,0-1.4,1.17v2H40.46" transform="translate(-2.59 -2.31)"/><path class="cls-2" d="M44.91,225.68c1.27,0,1.87.86,1.81,2.21h-3A1.18,1.18,0,0,0,44.95,229a1.26,1.26,0,0,0,1.1-.57l0.53,0.42a1.89,1.89,0,0,1-1.62.77,2,2,0,0,1,0-4M46,227.34a1,1,0,0,0-1.51-1,1.1,1.1,0,0,0-.73,1H46Z" transform="translate(-2.59 -2.31)"/><path class="cls-2" d="M48,225.78c0.29,1,.56,1.94.87,2.88l0.9-2.88H50.6c0.31,1,.6,1.94.93,2.88l0.85-2.88h0.79l-1.25,3.78H51.14c-0.32-.94-0.61-1.91-0.95-2.84l-0.92,2.84H48.49l-1.26-3.78H48" transform="translate(-2.59 -2.31)"/><path class="cls-2" d="M55.18,229.07a1.07,1.07,0,0,0,1.09-1.31c-0.82,0-1.86,0-1.86.72a0.64,0.64,0,0,0,.77.59m-1.54-.57c0-1.22,1.38-1.24,2.63-1.27a0.81,0.81,0,0,0-.93-0.93,1.57,1.57,0,0,0-1.08.44l-0.4-.48a2.22,2.22,0,0,1,1.55-.57A1.4,1.4,0,0,1,57,227.16a23.53,23.53,0,0,0,.06,2.4H56.37a2.51,2.51,0,0,1-.06-0.54h0a1.45,1.45,0,0,1-1.27.64A1.17,1.17,0,0,1,53.65,228.49Z" transform="translate(-2.59 -2.31)"/><polyline class="cls-2" points="56.42 227.25 55.67 227.25 55.67 224.24 55.67 221.23 56.42 221.23 56.42 224.24 56.42 227.25"/><polyline class="cls-2" points="58.49 227.25 57.74 227.25 57.74 224.24 57.74 221.23 58.49 221.23 58.49 224.24 58.49 227.25"/><rect class="cls-1" x="162.45" y="182.97" width="67.5" height="17.82"/><rect class="cls-1" x="179.32" y="170.55" width="3.38" height="10.8"/><path class="cls-3" d="M186.41,170.16a2.81,2.81,0,0,1-5.62,0A2.81,2.81,0,0,1,186.41,170.16Z" transform="translate(-2.59 -2.31)"/><rect class="cls-1" x="209.7" y="170.55" width="3.38" height="10.8"/><path class="cls-3" d="M216.79,170.16a2.81,2.81,0,0,1-5.62,0A2.81,2.81,0,0,1,216.79,170.16Z" transform="translate(-2.59 -2.31)"/><rect class="cls-1" x="174.28" y="202.95" width="3.38" height="10.8"/><path class="cls-3" d="M181.37,218.76a2.74,2.74,0,0,1-2.83,2.7,2.7,2.7,0,0,1-2.79-2.7,2.73,2.73,0,0,1,2.79-2.7A2.77,2.77,0,0,1,181.37,218.76Z" transform="translate(-2.59 -2.31)"/><rect class="cls-1" x="194.53" y="202.95" width="3.38" height="10.8"/><path class="cls-3" d="M201.62,218.76a2.74,2.74,0,0,1-2.83,2.7,2.7,2.7,0,0,1-2.79-2.7,2.73,2.73,0,0,1,2.79-2.7A2.77,2.77,0,0,1,201.62,218.76Z" transform="translate(-2.59 -2.31)"/><rect class="cls-1" x="214.78" y="202.95" width="3.38" height="10.8"/><path class="cls-3" d="M221.87,218.76a2.74,2.74,0,0,1-2.83,2.7,2.7,2.7,0,0,1-2.79-2.7,2.73,2.73,0,0,1,2.79-2.7A2.77,2.77,0,0,1,221.87,218.76Z" transform="translate(-2.59 -2.31)"/><polyline class="cls-2" points="181.92 227.72 184.87 227.72 184.87 228.07 184.87 228.42 181.13 228.42 181.13 225.6 181.13 222.78 184.75 222.78 184.75 223.13 184.75 223.47 181.92 223.47 181.92 224.32 181.92 225.16 184.58 225.16 184.58 225.5 184.58 225.84 181.92 225.84 181.92 226.78 181.92 227.72"/><path class="cls-2" d="M189.67,230.79a1,1,0,0,1-1.1-1.18v-2h-0.72V227h0.72v-1.08h0.74V227h1v0.61h-1v2c0,0.43.13,0.63,0.53,0.64a1.07,1.07,0,0,0,.44-0.1l0,0.61a1.91,1.91,0,0,1-.64.1" transform="translate(-2.59 -2.31)"/><path class="cls-2" d="M192.87,227.49a1.1,1.1,0,0,0-1,1.24v2H191.1v-6h0.75c0,0.93,0,1.91,0,2.82a1.33,1.33,0,0,1,1.19-.68,1.35,1.35,0,0,1,1.41,1.54v2.34h-0.75v-2.09c0-.66-0.19-1.15-0.85-1.15" transform="translate(-2.59 -2.31)"/><path class="cls-2" d="M197.44,226.85c1.27,0,1.87.86,1.81,2.21h-3a1.18,1.18,0,0,0,1.23,1.15,1.26,1.26,0,0,0,1.1-.57l0.53,0.42a1.89,1.89,0,0,1-1.62.77,2,2,0,0,1,0-4m1.06,1.66a1,1,0,0,0-1.51-1,1.1,1.1,0,0,0-.73,1h2.25Z" transform="translate(-2.59 -2.31)"/><path class="cls-2" d="M200.3,230.73c0-1.26,0-2.56,0-3.78H201c0,0.16,0,.47,0,0.64h0a1.28,1.28,0,0,1,1.45-.71l0,0.69a1.08,1.08,0,0,0-1.4,1.17v2H200.3" transform="translate(-2.59 -2.31)"/><path class="cls-2" d="M203.19,230.73c0-1.26,0-2.56,0-3.78h0.71c0,0.16,0,.45,0,0.62h0a1.32,1.32,0,0,1,1.23-.72,1.34,1.34,0,0,1,1.41,1.54v2.34h-0.75v-2.09c0-.67-0.19-1.15-0.86-1.15a1.09,1.09,0,0,0-1,1.24v2h-0.75" transform="translate(-2.59 -2.31)"/><path class="cls-2" d="M209.53,226.85c1.27,0,1.87.86,1.81,2.21h-3a1.18,1.18,0,0,0,1.23,1.15,1.26,1.26,0,0,0,1.1-.57l0.53,0.42a1.89,1.89,0,0,1-1.62.77,2,2,0,0,1,0-4m1.06,1.66a1,1,0,0,0-1.51-1,1.1,1.1,0,0,0-.73,1h2.25Z" transform="translate(-2.59 -2.31)"/><path class="cls-2" d="M213.59,230.79a1,1,0,0,1-1.1-1.18v-2h-0.72V227h0.72v-1.08h0.74V227h1v0.61h-1v2c0,0.43.13,0.63,0.53,0.64a1.07,1.07,0,0,0,.44-0.1l0,0.61a1.91,1.91,0,0,1-.64.1" transform="translate(-2.59 -2.31)"/><polyline class="cls-4" points="90 192.15 126.22 192.15 162.45 192.15"/><path class="cls-4" d="M183.62,167.46V137.94s0,0-.09,0l0,0V108.28" transform="translate(-2.59 -2.31)"/><polygon class="cls-2" points="181.49 165.28 181.03 165.15 180.81 165.19 180.59 165.24 180.59 165.15 181.49 165.15 181.49 165.28"/><rect class="cls-2" x="180.45" y="104.63" width="0.9" height="1.35"/><rect class="cls-1" x="265.37" y="225" width="56.16" height="17.01"/><rect class="cls-5" x="268.06" y="243.95" width="50.76" height="1.3"/><rect class="cls-6" x="269.41" y="228.02" width="5.17" height="2.2"/><path class="cls-6" d="M274.48,231.81h0c1.26,0,1.26,0,1.26,1.17v0.23c0,1.22,0,1.22-1.26,1.22s-1.26,0-1.26-1.22V233C273.22,231.81,273.22,231.81,274.48,231.81Z" transform="translate(-2.59 -2.31)"/><rect class="cls-6" x="277.43" y="228.02" width="5.17" height="2.2"/><path class="cls-6" d="M282.58,231.81h0c1.21,0,1.21,0,1.21,1.17v0.23c0,1.22,0,1.22-1.21,1.22s-1.31,0-1.31-1.22V233C281.27,231.81,281.27,231.81,282.58,231.81Z" transform="translate(-2.59 -2.31)"/><rect class="cls-6" x="285.93" y="228.02" width="5.17" height="2.2"/><path class="cls-6" d="M291,231.81h0c1.26,0,1.26,0,1.26,1.17v0.23c0,1.22,0,1.22-1.26,1.22s-1.26,0-1.26-1.22V233C289.78,231.81,289.78,231.81,291,231.81Z" transform="translate(-2.59 -2.31)"/><rect class="cls-6" x="294.16" y="228.02" width="5.22" height="2.2"/><path class="cls-6" d="M299.27,231.81h0c1.21,0,1.21,0,1.21,1.17v0.23c0,1.22,0,1.22-1.21,1.22s-1.26,0-1.26-1.22V233C298,231.81,298,231.81,299.27,231.81Z" transform="translate(-2.59 -2.31)"/><rect class="cls-6" x="304.56" y="226.35" width="15.08" height="13.82"/><rect class="cls-3" x="305.06" y="226.8" width="13.99" height="12.82"/><rect class="cls-6" x="269.5" y="234.86" width="5.22" height="2.16"/><path class="cls-6" d="M274.61,238.6h0c1.26,0,1.26,0,1.26,1.22V240c0,1.17,0,1.17-1.26,1.17s-1.21,0-1.21-1.17v-0.23C273.4,238.6,273.4,238.6,274.61,238.6Z" transform="translate(-2.59 -2.31)"/><rect class="cls-6" x="277.56" y="234.86" width="5.22" height="2.16"/><path class="cls-6" d="M282.67,238.6h0c1.26,0,1.26,0,1.26,1.22V240c0,1.17,0,1.17-1.26,1.17s-1.21,0-1.21-1.17v-0.23C281.45,238.6,281.45,238.6,282.67,238.6Z" transform="translate(-2.59 -2.31)"/><rect class="cls-6" x="286.06" y="234.86" width="5.22" height="2.16"/><path class="cls-6" d="M291.17,238.6h0c1.22,0,1.22,0,1.22,1.22V240c0,1.17,0,1.17-1.22,1.17s-1.26,0-1.26-1.17v-0.23C289.91,238.6,289.91,238.6,291.17,238.6Z" transform="translate(-2.59 -2.31)"/><rect class="cls-6" x="294.3" y="234.86" width="5.26" height="2.16"/><path class="cls-6" d="M299.45,238.6h0c1.21,0,1.21,0,1.21,1.22V240c0,1.17,0,1.17-1.21,1.17s-1.26,0-1.26-1.17v-0.23C298.19,238.6,298.19,238.6,299.45,238.6Z" transform="translate(-2.59 -2.31)"/><polygon class="cls-6" points="306.63 227.38 305.24 228.78 306.68 230.13 306.63 227.38"/><polygon class="cls-6" points="306.63 236.38 305.24 237.74 306.63 239.13 306.63 236.38"/><polygon class="cls-6" points="317.38 239.13 318.78 237.78 317.38 236.38 317.38 239.13"/><polygon class="cls-6" points="317.43 230.18 318.82 228.82 317.43 227.43 317.43 230.18"/><rect class="cls-6" x="306.54" y="228.2" width="2.12" height="1.08"/><rect class="cls-6" x="315.54" y="228.29" width="2.07" height="1.13"/><rect class="cls-6" x="306.54" y="237.2" width="2.07" height="1.08"/><rect class="cls-6" x="315.45" y="237.29" width="2.11" height="1.08"/><polygon class="cls-6" points="307.67 228.91 308.61 228.19 316.44 237.65 315.45 238.37 307.67 228.91"/><polygon class="cls-6" points="315.54 228.28 316.44 229.09 308.61 238.32 307.67 237.51 315.54 228.28"/><polygon class="cls-3" points="312.21 232.16 313.11 233.28 312.93 233.41 312.03 232.29 312.21 232.16"/><polygon class="cls-3" points="311.18 233.24 312.07 234.31 311.94 234.45 311.04 233.32 311.18 233.24"/><path class="cls-2" d="M284.47,252.66c0-1.4,1.58-1.9,2.86-1.43a1.62,1.62,0,0,1,.69.47l-0.56.54a1.36,1.36,0,0,0-1.1-.53,0.94,0.94,0,0,0-1,1.3c0.44,0.65,1.59.6,2.17,1.1a1.41,1.41,0,0,1,.54,1.15c0,1.51-1.64,2-3,1.51a2,2,0,0,1-.82-0.61l0.61-.52a1.57,1.57,0,0,0,1.26.66,1,1,0,0,0,1-1.39c-0.39-.7-1.65-0.6-2.23-1.15a1.42,1.42,0,0,1-.46-1.1" transform="translate(-2.59 -2.31)"/><path class="cls-2" d="M289.43,253.05c0.29,1,.56,1.94.87,2.88l0.9-2.88H292c0.31,1,.6,1.94.93,2.88l0.85-2.88h0.79l-1.25,3.78h-0.78c-0.32-.94-0.61-1.91-0.95-2.84l-0.92,2.84h-0.78l-1.26-3.78h0.81" transform="translate(-2.59 -2.31)"/><path class="cls-2" d="M295.69,251.21a0.5,0.5,0,0,1,.5.49,0.5,0.5,0,1,1-.5-0.49m0.37,5.62h-0.75v-3.78h0.75v3.78Z" transform="translate(-2.59 -2.31)"/><path class="cls-2" d="M298.57,256.89a1,1,0,0,1-1.1-1.18v-2h-0.72v-0.61h0.72V252h0.74v1.08h1v0.61h-1v2c0,0.43.13,0.63,0.53,0.64a1.07,1.07,0,0,0,.44-0.1l0,0.61a1.91,1.91,0,0,1-.64.1" transform="translate(-2.59 -2.31)"/><path class="cls-2" d="M299.74,254.94a1.85,1.85,0,0,1,2-2,1.79,1.79,0,0,1,1.42.62l-0.54.44a1,1,0,0,0-.87-0.43,1.37,1.37,0,0,0,0,2.72,1.08,1.08,0,0,0,.91-0.41l0.5,0.45a1.74,1.74,0,0,1-1.41.59,1.87,1.87,0,0,1-2-2" transform="translate(-2.59 -2.31)"/><path class="cls-2" d="M305.71,253.59a1.1,1.1,0,0,0-1,1.24v2h-0.75v-6h0.75c0,0.93,0,1.91,0,2.82a1.33,1.33,0,0,1,1.19-.68,1.35,1.35,0,0,1,1.41,1.54v2.34h-0.75v-2.09c0-.66-0.19-1.15-0.85-1.15" transform="translate(-2.59 -2.31)"/><path class="cls-4" d="M223.09,88.48h53.14a2.23,2.23,0,0,0,2.25-2.25V38.31a2.26,2.26,0,0,1,2.25-2.25h18.86" transform="translate(-2.59 -2.31)"/><rect class="cls-2" x="220.41" y="85.73" width="0.09" height="0.9"/><path class="cls-1" d="M434.68,203.46h53.1c4.1,0,4.1,0,4.1,4.55v29.57c0,4.55,0,4.55-4.1,4.55h-53.1c-4.14,0-4.14,0-4.14-4.55V208C430.54,203.46,430.54,203.46,434.68,203.46Z" transform="translate(-2.59 -2.31)"/><rect class="cls-6" x="432.09" y="204.93" width="53.46" height="29.97"/><rect class="cls-3" x="432.76" y="206.06" width="52.11" height="27.72"/><rect class="cls-1" x="425.25" y="248.71" width="67.41" height="6.43"/><polygon class="cls-1" points="443.7 241.2 490.32 241.2 492.66 248.85 446.04 248.85 443.7 241.2"/><polygon class="cls-1" points="473.63 241.2 427.63 241.2 425.25 248.76 471.29 248.76 473.63 241.2"/><polygon class="cls-6" points="447.25 242.69 487.62 242.69 489.24 247.77 448.88 247.77 447.25 242.69"/><polygon class="cls-6" points="463.86 242.69 429.98 242.69 428.63 247.77 462.51 247.77 463.86 242.69"/><polyline class="cls-2" points="447.42 263.72 449.94 263.72 449.94 264.07 449.94 264.42 446.63 264.42 446.63 261.6 446.63 258.78 447.42 258.78 447.42 261.25 447.42 263.72"/><path class="cls-2" d="M454.51,266.24a1.07,1.07,0,0,0,1.09-1.31c-0.82,0-1.86,0-1.86.72a0.64,0.64,0,0,0,.77.59m-1.54-.57c0-1.22,1.38-1.24,2.63-1.27a0.81,0.81,0,0,0-.93-0.93,1.57,1.57,0,0,0-1.08.44l-0.4-.48a2.22,2.22,0,0,1,1.55-.57,1.4,1.4,0,0,1,1.58,1.48,23.53,23.53,0,0,0,.06,2.4H455.7a2.51,2.51,0,0,1-.06-0.54h0a1.45,1.45,0,0,1-1.27.64A1.17,1.17,0,0,1,453,265.66Z" transform="translate(-2.59 -2.31)"/><path class="cls-2" d="M459.54,266.2a1.37,1.37,0,0,0,0-2.73,1.37,1.37,0,0,0,0,2.73m0.13,0.63a1.57,1.57,0,0,1-1.33-.67h0v2.48h-0.75V263h0.73v0.59h0a1.51,1.51,0,0,1,1.36-.69A2,2,0,0,1,459.67,266.83Z" transform="translate(-2.59 -2.31)"/><path class="cls-2" d="M463.82,266.79a1,1,0,0,1-1.1-1.18v-2H462V263h0.72v-1.08h0.74V263h1v0.61h-1v2c0,0.43.13,0.63,0.53,0.64a1.07,1.07,0,0,0,.44-0.1l0,0.61a1.91,1.91,0,0,1-.64.1" transform="translate(-2.59 -2.31)"/><path class="cls-2" d="M467,266.2a1.37,1.37,0,1,0-1.26-1.37A1.22,1.22,0,0,0,467,266.2m0-3.35a2,2,0,1,1-2,2A1.87,1.87,0,0,1,467,262.85Z" transform="translate(-2.59 -2.31)"/><path class="cls-2" d="M472.07,266.2a1.37,1.37,0,0,0,0-2.73,1.37,1.37,0,0,0,0,2.73m0.13,0.63a1.57,1.57,0,0,1-1.33-.67h0v2.48H470.1V263h0.73v0.59h0a1.51,1.51,0,0,1,1.36-.69A2,2,0,0,1,472.2,266.83Z" transform="translate(-2.59 -2.31)"/><path class="cls-4" d="M324.2,237.43h53.05a0.1,0.1,0,0,0,.09-0.09,0.14,0.14,0,0,1,.14-0.14h53.05" transform="translate(-2.59 -2.31)"/><rect class="cls-2" x="321.52" y="234.68" width="0.09" height="0.9"/><path class="cls-2" d="M430.54,237.66v0Z" transform="translate(-2.59 -2.31)"/><path class="cls-1" d="M434.68,115.48h53.1c4.1,0,4.1,0,4.1,4.5v29.61c0,4.55,0,4.55-4.1,4.55h-53.1c-4.14,0-4.14,0-4.14-4.55V120C430.54,115.48,430.54,115.48,434.68,115.48Z" transform="translate(-2.59 -2.31)"/><rect class="cls-6" x="432.09" y="116.96" width="53.46" height="29.97"/><rect class="cls-3" x="432.76" y="118.08" width="52.11" height="27.67"/><rect class="cls-1" x="425.25" y="160.74" width="67.41" height="6.43"/><polygon class="cls-1" points="443.7 153.22 490.32 153.22 492.66 160.83 446.04 160.83 443.7 153.22"/><polygon class="cls-1" points="473.63 153.22 427.63 153.22 425.25 160.78 471.29 160.78 473.63 153.22"/><polygon class="cls-6" points="447.25 154.66 487.62 154.66 489.24 159.75 448.88 159.75 447.25 154.66"/><polygon class="cls-6" points="463.86 154.66 429.98 154.66 428.63 159.75 462.51 159.75 463.86 154.66"/><polyline class="cls-2" points="447.42 175.7 449.94 175.7 449.94 176.05 449.94 176.4 446.63 176.4 446.63 173.58 446.63 170.76 447.42 170.76 447.42 173.23 447.42 175.7"/><path class="cls-2" d="M454.51,178.22a1.07,1.07,0,0,0,1.09-1.31c-0.82,0-1.86,0-1.86.72a0.64,0.64,0,0,0,.77.59m-1.54-.57c0-1.22,1.38-1.24,2.63-1.27a0.81,0.81,0,0,0-.93-0.93,1.57,1.57,0,0,0-1.08.44l-0.4-.48a2.22,2.22,0,0,1,1.55-.57,1.4,1.4,0,0,1,1.58,1.48,23.53,23.53,0,0,0,.06,2.4H455.7a2.51,2.51,0,0,1-.06-0.54h0a1.45,1.45,0,0,1-1.27.64A1.17,1.17,0,0,1,453,177.64Z" transform="translate(-2.59 -2.31)"/><path class="cls-2" d="M459.54,178.18a1.37,1.37,0,0,0,0-2.73,1.37,1.37,0,0,0,0,2.73m0.13,0.63a1.57,1.57,0,0,1-1.33-.67h0v2.48h-0.75v-5.69h0.73v0.59h0a1.51,1.51,0,0,1,1.36-.69A2,2,0,0,1,459.67,178.81Z" transform="translate(-2.59 -2.31)"/><path class="cls-2" d="M463.82,178.77a1,1,0,0,1-1.1-1.18v-2H462v-0.61h0.72v-1.08h0.74v1.08h1v0.61h-1v2c0,0.43.13,0.63,0.53,0.64a1.07,1.07,0,0,0,.44-0.1l0,0.61a1.91,1.91,0,0,1-.64.1" transform="translate(-2.59 -2.31)"/><path class="cls-2" d="M467,178.18a1.37,1.37,0,1,0-1.26-1.37,1.22,1.22,0,0,0,1.26,1.37m0-3.35a2,2,0,1,1-2,2A1.87,1.87,0,0,1,467,174.83Z" transform="translate(-2.59 -2.31)"/><path class="cls-2" d="M472.07,178.18a1.37,1.37,0,0,0,0-2.73,1.37,1.37,0,0,0,0,2.73m0.13,0.63a1.57,1.57,0,0,1-1.33-.67h0v2.48H470.1v-5.69h0.73v0.59h0a1.51,1.51,0,0,1,1.36-.69A2,2,0,0,1,472.2,178.81Z" transform="translate(-2.59 -2.31)"/><path class="cls-4" d="M324.2,237.43h50.17a2.26,2.26,0,0,0,2.25-2.25v-83.7a2.23,2.23,0,0,1,2.25-2.25h51.66" transform="translate(-2.59 -2.31)"/><rect class="cls-2" x="321.52" y="234.68" width="0.09" height="0.9"/><path class="cls-2" d="M430.54,149.68v0Z" transform="translate(-2.59 -2.31)"/><path class="cls-1" d="M434.5,291.43h53.15c4.09,0,4.09,0,4.09,4.54v29.61c0,4.54,0,4.54-4.09,4.54H434.5c-4.1,0-4.1,0-4.1-4.54V296C430.4,291.43,430.4,291.43,434.5,291.43Z" transform="translate(-2.59 -2.31)"/><rect class="cls-6" x="431.91" y="292.91" width="53.46" height="29.97"/><rect class="cls-3" x="432.58" y="294.08" width="52.11" height="27.67"/><rect class="cls-1" x="425.11" y="336.73" width="67.41" height="6.39"/><polygon class="cls-1" points="443.52 329.22 490.19 329.22 492.52 336.82 445.9 336.82 443.52 329.22"/><polygon class="cls-1" points="473.49 329.22 427.45 329.22 425.12 336.78 471.15 336.78 473.49 329.22"/><polygon class="cls-6" points="447.12 330.66 487.49 330.66 489.11 335.75 448.74 335.75 447.12 330.66"/><polygon class="cls-6" points="463.73 330.66 429.84 330.66 428.49 335.75 462.38 335.75 463.73 330.66"/><polyline class="cls-2" points="447.24 351.69 449.76 351.69 449.76 352.05 449.76 352.39 446.45 352.39 446.45 349.57 446.45 346.76 447.24 346.76 447.24 349.23 447.24 351.69"/><path class="cls-2" d="M454.33,354.21a1.07,1.07,0,0,0,1.09-1.31c-0.82,0-1.86,0-1.86.72a0.64,0.64,0,0,0,.77.59m-1.54-.57c0-1.22,1.38-1.24,2.63-1.27a0.81,0.81,0,0,0-.93-0.93,1.57,1.57,0,0,0-1.08.44l-0.4-.48a2.22,2.22,0,0,1,1.55-.57,1.4,1.4,0,0,1,1.58,1.48,23.53,23.53,0,0,0,.06,2.4h-0.68a2.51,2.51,0,0,1-.06-0.54h0a1.45,1.45,0,0,1-1.27.64A1.17,1.17,0,0,1,452.79,353.64Z" transform="translate(-2.59 -2.31)"/><path class="cls-2" d="M459.36,354.18a1.37,1.37,0,0,0,0-2.73,1.37,1.37,0,0,0,0,2.73m0.13,0.63a1.57,1.57,0,0,1-1.33-.67h0v2.48h-0.75v-5.69h0.73v0.59h0a1.51,1.51,0,0,1,1.36-.69A2,2,0,0,1,459.49,354.81Z" transform="translate(-2.59 -2.31)"/><path class="cls-2" d="M463.64,354.77a1,1,0,0,1-1.1-1.18v-2h-0.72v-0.61h0.72v-1.08h0.74v1.08h1v0.61h-1v2c0,0.43.13,0.63,0.53,0.64a1.07,1.07,0,0,0,.44-0.1l0,0.61a1.91,1.91,0,0,1-.64.1" transform="translate(-2.59 -2.31)"/><path class="cls-2" d="M466.84,354.18a1.37,1.37,0,1,0-1.26-1.37,1.22,1.22,0,0,0,1.26,1.37m0-3.35a2,2,0,1,1-2,2A1.87,1.87,0,0,1,466.84,350.83Z" transform="translate(-2.59 -2.31)"/><path class="cls-2" d="M471.89,354.18a1.37,1.37,0,0,0,0-2.73,1.37,1.37,0,0,0,0,2.73m0.13,0.63a1.57,1.57,0,0,1-1.33-.67h0v2.48h-0.75v-5.69h0.73v0.59h0a1.51,1.51,0,0,1,1.36-.69A2,2,0,0,1,472,354.81Z" transform="translate(-2.59 -2.31)"/><path class="cls-4" d="M324.2,237.43h50.17a2.29,2.29,0,0,1,2.25,2.25v83.25a2.23,2.23,0,0,0,2.25,2.25H430.4" transform="translate(-2.59 -2.31)"/><rect class="cls-2" x="321.52" y="234.68" width="0.09" height="0.9"/><path class="cls-2" d="M430.4,325.63v0Z" transform="translate(-2.59 -2.31)"/><rect class="cls-6" x="197.73" y="300.2" width="13.59" height="0.63"/><rect class="cls-1" x="170.55" y="348.71" width="7.11" height="5.26"/><rect class="cls-1" x="197.64" y="289.35" width="28.26" height="68.98"/><rect class="cls-1" x="136.35" y="300.96" width="74.79" height="47.83"/><rect class="cls-6" x="139.77" y="303.89" width="68.22" height="42.75"/><rect class="cls-3" x="141.39" y="304.88" width="64.8" height="40.41"/><polygon class="cls-1" points="139.32 354.38 207.45 354.38 204.12 365.76 135.9 365.76 139.32 354.38"/><polygon class="cls-1" points="138.87 353.97 208.62 353.97 214.47 365.85 144.72 365.85 138.87 353.97"/><rect class="cls-6" x="162.54" y="362.79" width="24.84" height="2.39"/><rect class="cls-6" x="148.86" y="355.82" width="1.89" height="1.53"/><rect class="cls-6" x="152.1" y="355.91" width="1.89" height="1.53"/><rect class="cls-6" x="156.33" y="358.65" width="1.8" height="1.53"/><rect class="cls-6" x="155.61" y="355.77" width="1.89" height="1.53"/><rect class="cls-6" x="158.76" y="355.82" width="1.89" height="1.53"/><rect class="cls-6" x="161.91" y="355.77" width="1.8" height="1.53"/><rect class="cls-6" x="181.08" y="355.99" width="1.89" height="1.53"/><rect class="cls-6" x="183.96" y="355.99" width="1.8" height="1.53"/><rect class="cls-6" x="186.57" y="355.99" width="1.89" height="1.53"/><rect class="cls-6" x="189.72" y="355.99" width="1.89" height="1.53"/><rect class="cls-6" x="192.69" y="355.99" width="1.8" height="1.53"/><rect class="cls-6" x="189.18" y="358.52" width="1.89" height="1.53"/><rect class="cls-6" x="196.02" y="355.99" width="1.89" height="1.53"/><rect class="cls-6" x="159.75" y="358.61" width="1.89" height="1.53"/><rect class="cls-6" x="163.35" y="358.61" width="1.8" height="1.53"/><rect class="cls-6" x="186.3" y="358.43" width="1.62" height="1.53"/><rect class="cls-6" x="183.15" y="358.43" width="1.8" height="1.53"/><rect class="cls-6" x="165.33" y="355.82" width="1.8" height="1.53"/><rect class="cls-6" x="168.75" y="355.91" width="1.89" height="1.53"/><rect class="cls-6" x="171.99" y="355.82" width="1.89" height="1.53"/><rect class="cls-6" x="175.59" y="355.82" width="1.8" height="1.53"/><rect class="cls-6" x="178.47" y="355.91" width="1.89" height="1.53"/><rect class="cls-6" x="166.5" y="358.52" width="1.8" height="1.53"/><rect class="cls-6" x="169.92" y="358.52" width="1.89" height="1.53"/><rect class="cls-6" x="173.25" y="358.61" width="1.8" height="1.53"/><rect class="cls-6" x="176.4" y="358.61" width="1.89" height="1.53"/><rect class="cls-6" x="179.73" y="358.43" width="1.8" height="1.53"/><path class="cls-6" d="M220.21,295.26h5c0.54,0,.54,0,0.54.54s0,0.54-.54.54h-5c-0.54,0-.54,0-0.54-0.54S219.67,295.26,220.21,295.26Z" transform="translate(-2.59 -2.31)"/><path class="cls-6" d="M220.21,297.78h5.13c0.45,0,.45,0,0.45.45s0,0.45-.45.45h-5.13c-0.54,0-.54,0-0.54-0.45S219.67,297.78,220.21,297.78Z" transform="translate(-2.59 -2.31)"/><rect class="cls-6" x="211.32" y="300.2" width="0.63" height="48.74"/><rect class="cls-6" x="197.64" y="348.89" width="14.22" height="0.67"/><path class="cls-6" d="M200.32,355.06h10.89c0.54,0,.54,0,0.54.54s0,0.63-.54.63H200.32c-0.54,0-.54,0-0.54-0.63S199.78,355.06,200.32,355.06Z" transform="translate(-2.59 -2.31)"/><polygon class="cls-6" points="209.07 352.94 212.13 358.2 211.23 358.74 208.26 353.38 209.07 352.94"/><rect class="cls-6" x="170.19" y="348.71" width="7.65" height="0.76"/><rect class="cls-6" x="170.46" y="353.16" width="7.29" height="0.81"/><path class="cls-2" d="M181.89,373.36c0-1-1.13-.91-2.15-0.9v1.82c1,0,2.15.09,2.15-.92m0.8,0c0,1.49-1.37,1.66-2.95,1.59v2.48H179v-5.64h1.72C181.84,371.81,182.69,372.2,182.69,373.36Z" transform="translate(-2.59 -2.31)"/><path class="cls-2" d="M186.38,376.87a1.75,1.75,0,0,0,1.51-.75l0.63,0.43a2.53,2.53,0,0,1-2.15,1,2.82,2.82,0,0,1-2.75-1.77,3.38,3.38,0,0,1,0-2.41,2.93,2.93,0,0,1,3.36-1.7,2.19,2.19,0,0,1,1.44.82l-0.62.48a1.7,1.7,0,0,0-1.4-.66,2.07,2.07,0,0,0-2.14,2.26,2,2,0,0,0,2.12,2.27" transform="translate(-2.59 -2.31)"/><path class="cls-4" d="M219,221.46v13.73a2.23,2.23,0,0,0,2.25,2.25H268" transform="translate(-2.59 -2.31)"/><path class="cls-2" d="M219.49,221.46h-0.27l0.27-.09v0.09Zm-0.45,0h-0.45v-0.09Z" transform="translate(-2.59 -2.31)"/><line class="cls-4" x1="45" y1="103.5" x2="45" y2="152.77"/><rect class="cls-2" x="44.55" y="102.15" width="0.9" height="1.35"/><path class="cls-1" d="M330.28,109.27h6.12c5.8,0,10.48.85,10.48,2v36.45c0,1.13-4.68,2-10.48,2h-6.12c-5.76,0-10.44-.9-10.44-2V111.3C319.84,110.13,324.52,109.27,330.28,109.27Z" transform="translate(-2.59 -2.31)"/><rect class="cls-6" x="319.14" y="110.21" width="23.27" height="33.08"/><path class="cls-6" d="M329.47,110.62H337a0.35,0.35,0,0,1,.36.27,0.37,0.37,0,0,1-.36.23h-7.51a0.33,0.33,0,0,1-.36-0.23A0.32,0.32,0,0,1,329.47,110.62Z" transform="translate(-2.59 -2.31)"/><path class="cls-6" d="M330.41,147.79a0.47,0.47,0,0,1-.49.49,0.51,0.51,0,0,1-.54-0.49,0.54,0.54,0,0,1,.54-0.45A0.49,0.49,0,0,1,330.41,147.79Z" transform="translate(-2.59 -2.31)"/><path class="cls-6" d="M334.15,147.79a0.5,0.5,0,0,1-1,0A0.5,0.5,0,0,1,334.15,147.79Z" transform="translate(-2.59 -2.31)"/><path class="cls-6" d="M337.7,147.79a0.51,0.51,0,0,1-.54.49,0.47,0.47,0,0,1-.49-0.49,0.49,0.49,0,0,1,.49-0.45A0.54,0.54,0,0,1,337.7,147.79Z" transform="translate(-2.59 -2.31)"/><rect class="cls-3" x="319.77" y="110.75" width="21.96" height="31.9"/><path class="cls-2" d="M310.34,154.83c0-1.4,1.58-1.9,2.86-1.43a1.62,1.62,0,0,1,.69.47l-0.56.54a1.36,1.36,0,0,0-1.1-.53,0.94,0.94,0,0,0-1,1.3c0.44,0.65,1.59.6,2.17,1.1a1.41,1.41,0,0,1,.54,1.15c0,1.51-1.64,2-3,1.51a2,2,0,0,1-.82-0.61l0.61-.52a1.57,1.57,0,0,0,1.26.66,1,1,0,0,0,1-1.39c-0.39-.7-1.65-0.6-2.23-1.15a1.42,1.42,0,0,1-.46-1.1" transform="translate(-2.59 -2.31)"/><path class="cls-2" d="M315.76,155.85a1.32,1.32,0,0,1,1.2-.72,1.18,1.18,0,0,1,1.17.76,1.39,1.39,0,0,1,1.28-.76,1.34,1.34,0,0,1,1.41,1.54V159h-0.75V156.9c0-.65-0.19-1.15-0.84-1.15-1.36,0-.86,1.94-1,3.25h-0.75v-2.25a0.81,0.81,0,0,0-.8-1,1.09,1.09,0,0,0-1,1.24v2H315c0-1.26,0-2.56,0-3.78h0.71c0,0.16,0,.45,0,0.62h0" transform="translate(-2.59 -2.31)"/><path class="cls-2" d="M323.35,158.51a1.07,1.07,0,0,0,1.09-1.31c-0.82,0-1.86,0-1.86.72a0.64,0.64,0,0,0,.77.59m-1.54-.57c0-1.22,1.38-1.24,2.63-1.27a0.81,0.81,0,0,0-.93-0.93,1.57,1.57,0,0,0-1.08.44l-0.4-.48a2.22,2.22,0,0,1,1.55-.57,1.4,1.4,0,0,1,1.58,1.48,23.53,23.53,0,0,0,.06,2.4h-0.68a2.51,2.51,0,0,1-.06-0.54h0a1.45,1.45,0,0,1-1.27.64A1.17,1.17,0,0,1,321.81,157.93Z" transform="translate(-2.59 -2.31)"/><path class="cls-2" d="M326.41,159c0-1.26,0-2.56,0-3.78h0.71c0,0.16,0,.47,0,0.64h0a1.28,1.28,0,0,1,1.45-.71l0,0.69a1.08,1.08,0,0,0-1.4,1.17v2h-0.75" transform="translate(-2.59 -2.31)"/><path class="cls-2" d="M330.4,159.06a1,1,0,0,1-1.1-1.18v-2h-0.72v-0.61h0.72v-1.08H330v1.08h1v0.61h-1v2c0,0.43.13,0.63,0.53,0.64a1.07,1.07,0,0,0,.44-0.1l0,0.61a1.91,1.91,0,0,1-.64.1" transform="translate(-2.59 -2.31)"/><path class="cls-2" d="M336.87,154.93c0-1-1.13-.91-2.15-0.9v1.82c1,0,2.15.09,2.15-.92m0.8,0c0,1.49-1.37,1.66-2.95,1.59V159h-0.79v-5.64h1.72C336.82,153.38,337.67,153.77,337.67,154.93Z" transform="translate(-2.59 -2.31)"/><path class="cls-2" d="M340.41,155.76a1.1,1.1,0,0,0-1,1.24v2h-0.75v-6h0.75c0,0.93,0,1.91,0,2.82a1.33,1.33,0,0,1,1.19-.68,1.35,1.35,0,0,1,1.41,1.54V159h-0.75v-2.09c0-.66-0.19-1.15-0.85-1.15" transform="translate(-2.59 -2.31)"/><path class="cls-2" d="M345.07,158.47a1.37,1.37,0,1,0-1.26-1.37,1.22,1.22,0,0,0,1.26,1.37m0-3.35a2,2,0,1,1-2,2A1.87,1.87,0,0,1,345.07,155.12Z" transform="translate(-2.59 -2.31)"/><path class="cls-2" d="M348.14,159c0-1.26,0-2.56,0-3.78h0.71c0,0.16,0,.45,0,0.62h0a1.32,1.32,0,0,1,1.23-.72,1.34,1.34,0,0,1,1.41,1.54V159h-0.75V156.9c0-.67-0.19-1.15-0.86-1.15a1.09,1.09,0,0,0-1,1.24v2h-0.75" transform="translate(-2.59 -2.31)"/><path class="cls-2" d="M354.48,155.12c1.27,0,1.87.86,1.81,2.21h-3a1.18,1.18,0,0,0,1.23,1.15,1.26,1.26,0,0,0,1.1-.57l0.53,0.42a1.89,1.89,0,0,1-1.62.77,2,2,0,0,1,0-4m1.06,1.66a1,1,0,0,0-1.51-1,1.1,1.1,0,0,0-.73,1h2.25Z" transform="translate(-2.59 -2.31)"/><polygon class="cls-7" points="43.78 36 11.25 89.01 78.75 89.42 43.78 36"/><path class="cls-1" d="M44.57,91.32C28,91.23,14.33,91.14,14.33,91s31.9-52.24,32-52.2S69.05,73.23,80,90.1l1,1.48-3.15,0C76.21,91.54,61.13,91.45,44.57,91.32Z" transform="translate(-2.59 -2.31)"/><polygon class="cls-7" points="28.75 61.16 59.72 60.93 45.27 88.61 28.75 61.16"/><path class="cls-6" d="M59.69,71.83c0,8.41-5.76,15.25-12.91,15.25S34,80.25,34,71.83s5.71-15.21,12.82-15.21S59.69,63.42,59.69,71.83Z" transform="translate(-2.59 -2.31)"/><path class="cls-6" d="M38.32,77.28l-9-15,16.83-.13C55.42,62,63.07,62,63.11,62S47.54,92.26,47.45,92.35,43.36,85.6,38.32,77.28Z" transform="translate(-2.59 -2.31)"/><path class="cls-3" d="M58.25,71.74c0,6.84-5.13,12.38-11.48,12.38S35.39,78.58,35.39,71.74s5.13-12.37,11.39-12.37S58.25,64.95,58.25,71.74Z" transform="translate(-2.59 -2.31)"/><path class="cls-6" d="M56.5,71.74c0,5.9-4.32,10.58-9.59,10.58s-9.63-4.68-9.63-10.58,4.27-10.57,9.63-10.57S56.5,65.89,56.5,71.74Z" transform="translate(-2.59 -2.31)"/><rect class="cls-3" x="33.39" y="68.04" width="22.27" height="1.67"/><rect class="cls-3" x="43.52" y="57.83" width="1.98" height="23.49"/><rect class="cls-3" x="35.68" y="74.88" width="18.27" height="0.36"/><rect class="cls-3" x="34.15" y="64.08" width="18.45" height="0.36"/><path class="cls-2" d="M25.52,95.94c0.42,1.49.81,3,1.26,4.49l1.32-4.49H29c0.45,1.49.86,3,1.33,4.49l1.24-4.49h0.84l-1.66,5.64H29.9c-0.46-1.51-.9-3-1.39-4.53l-1.37,4.53H26.33l-1.66-5.64h0.85" transform="translate(-2.59 -2.31)"/><path class="cls-2" d="M34.52,97.7c1.27,0,1.87.86,1.81,2.21h-3a1.18,1.18,0,0,0,1.23,1.15,1.26,1.26,0,0,0,1.1-.57l0.53,0.42a1.89,1.89,0,0,1-1.62.77,2,2,0,0,1,0-4m1.06,1.66a1,1,0,0,0-1.51-1,1.1,1.1,0,0,0-.73,1h2.25Z" transform="translate(-2.59 -2.31)"/><path class="cls-2" d="M39.37,101.05a1.37,1.37,0,0,0,0-2.73,1.37,1.37,0,0,0,0,2.73m0.13,0.63a1.59,1.59,0,0,1-1.36-.7h0v0.6H37.4v-6h0.75v2.81h0a1.58,1.58,0,0,1,1.35-.67A2,2,0,0,1,39.5,101.68Z" transform="translate(-2.59 -2.31)"/><path class="cls-2" d="M44.35,97.41c0-1.4,1.58-1.9,2.86-1.43a1.62,1.62,0,0,1,.69.47L47.34,97a1.36,1.36,0,0,0-1.1-.53,0.94,0.94,0,0,0-1,1.3c0.44,0.65,1.59.6,2.17,1.1A1.41,1.41,0,0,1,48,100c0,1.51-1.64,2-3,1.51a2,2,0,0,1-.82-0.61l0.61-.52A1.57,1.57,0,0,0,46,101a1,1,0,0,0,1-1.39c-0.39-.7-1.65-0.6-2.23-1.15a1.42,1.42,0,0,1-.46-1.1" transform="translate(-2.59 -2.31)"/><path class="cls-2" d="M50.73,97.7c1.27,0,1.87.86,1.81,2.21h-3a1.18,1.18,0,0,0,1.23,1.15,1.26,1.26,0,0,0,1.1-.57l0.53,0.42a1.89,1.89,0,0,1-1.62.77,2,2,0,0,1,0-4m1.06,1.66a1,1,0,0,0-1.51-1,1.1,1.1,0,0,0-.73,1h2.25Z" transform="translate(-2.59 -2.31)"/><path class="cls-2" d="M53.59,101.58c0-1.26,0-2.56,0-3.78h0.71c0,0.16,0,.47,0,0.64h0a1.28,1.28,0,0,1,1.45-.71l0,0.69a1.08,1.08,0,0,0-1.4,1.17v2H53.59" transform="translate(-2.59 -2.31)"/><path class="cls-2" d="M58.25,101.58H57.44L55.9,97.8h0.83c0.37,1,.72,2,1.12,3l1.12-3h0.8" transform="translate(-2.59 -2.31)"/><path class="cls-2" d="M60.87,96a0.5,0.5,0,0,1,.5.49,0.5,0.5,0,1,1-.5-0.49m0.37,5.62H60.5V97.8h0.75v3.78Z" transform="translate(-2.59 -2.31)"/><path class="cls-2" d="M62.31,99.69a1.85,1.85,0,0,1,2-2,1.79,1.79,0,0,1,1.42.62l-0.54.44a1,1,0,0,0-.87-0.43,1.37,1.37,0,0,0,0,2.72,1.08,1.08,0,0,0,.91-0.41l0.5,0.45a1.74,1.74,0,0,1-1.41.59,1.87,1.87,0,0,1-2-2" transform="translate(-2.59 -2.31)"/><path class="cls-2" d="M68.19,97.7c1.27,0,1.87.86,1.81,2.21H67a1.18,1.18,0,0,0,1.23,1.15,1.26,1.26,0,0,0,1.1-.57l0.53,0.42a1.89,1.89,0,0,1-1.62.77,2,2,0,0,1,0-4m1.06,1.66a1,1,0,0,0-1.51-1,1.1,1.1,0,0,0-.73,1h2.25Z" transform="translate(-2.59 -2.31)"/><rect class="cls-1" x="311.53" width="37.35" height="22.68"/><path class="cls-1" d="M304,25.75h58.77c4.41,0,4.41,0,4.41,8.37s0,8.37-4.41,8.37H304c-4.41,0-4.41,0-4.41-8.37S299.59,25.75,304,25.75Z" transform="translate(-2.59 -2.31)"/><rect class="cls-1" x="309.15" y="40.95" width="42.98" height="13.05"/><rect class="cls-1" x="297" y="31.01" width="11.21" height="15.8"/><rect class="cls-1" x="353.29" y="31.1" width="11.29" height="16.25"/><path class="cls-6" d="M320.24,49.51H346.3c0.4,0,.4,0,0.4.32s0,0.36-.4.36H320.24c-0.4,0-.4,0-0.4-0.36S319.84,49.51,320.24,49.51Z" transform="translate(-2.59 -2.31)"/><path class="cls-6" d="M343.6,34.8a2.86,2.86,0,0,1-3.11,2.52c-1.67,0-3.11-1.17-3.11-2.52s1.44-2.48,3.11-2.48S343.6,33.45,343.6,34.8Z" transform="translate(-2.59 -2.31)"/><path class="cls-6" d="M353.45,34.8a3.17,3.17,0,0,1-6.21,0c0-1.35,1.35-2.48,3.11-2.48S353.45,33.45,353.45,34.8Z" transform="translate(-2.59 -2.31)"/><path class="cls-6" d="M363,34.8c0,1.35-1.44,2.52-3.11,2.52a2.86,2.86,0,0,1-3.11-2.52c0-1.35,1.35-2.48,3.11-2.48S363,33.45,363,34.8Z" transform="translate(-2.59 -2.31)"/><path class="cls-3" d="M342.34,34.8a1.69,1.69,0,0,1-1.85,1.48,1.71,1.71,0,0,1-1.89-1.48,1.68,1.68,0,0,1,1.89-1.49A1.66,1.66,0,0,1,342.34,34.8Z" transform="translate(-2.59 -2.31)"/><path class="cls-3" d="M352.24,34.89a1.89,1.89,0,0,1-3.69,0A1.89,1.89,0,0,1,352.24,34.89Z" transform="translate(-2.59 -2.31)"/><path class="cls-3" d="M361.82,34.8a1.9,1.9,0,0,1-3.74,0,1.66,1.66,0,0,1,1.85-1.44A1.68,1.68,0,0,1,361.82,34.8Z" transform="translate(-2.59 -2.31)"/><path class="cls-2" d="M324.86,61.51c0-1-1.13-.91-2.15-0.9v1.82c1,0,2.15.09,2.15-.92m0.8,0c0,1.49-1.37,1.66-2.95,1.59v2.48h-0.79V59.94h1.72C324.81,60,325.65,60.35,325.65,61.51Z" transform="translate(-2.59 -2.31)"/><path class="cls-2" d="M326.25,65.58c0-1.26,0-2.56,0-3.78h0.71c0,0.16,0,.47,0,0.64h0a1.28,1.28,0,0,1,1.45-.71l0,0.69A1.08,1.08,0,0,0,327,63.6v2h-0.75" transform="translate(-2.59 -2.31)"/><path class="cls-2" d="M329.51,60a0.5,0.5,0,0,1,.5.49,0.5,0.5,0,1,1-.5-0.49m0.37,5.62h-0.75V61.8h0.75v3.78Z" transform="translate(-2.59 -2.31)"/><path class="cls-2" d="M331.2,65.58c0-1.26,0-2.56,0-3.78h0.71c0,0.16,0,.45,0,0.62h0a1.32,1.32,0,0,1,1.23-.72,1.34,1.34,0,0,1,1.41,1.54v2.34h-0.75V63.48c0-.67-0.19-1.15-0.86-1.15a1.09,1.09,0,0,0-1,1.24v2H331.2" transform="translate(-2.59 -2.31)"/><path class="cls-2" d="M337,65.64a1,1,0,0,1-1.1-1.18v-2h-0.72V61.8h0.72V60.72h0.74V61.8h1v0.61h-1v2c0,0.43.13,0.63,0.53,0.64a1.07,1.07,0,0,0,.44-0.1l0,0.61a1.91,1.91,0,0,1-.64.1" transform="translate(-2.59 -2.31)"/><path class="cls-2" d="M340.16,61.7c1.27,0,1.87.86,1.81,2.21h-3a1.18,1.18,0,0,0,1.23,1.15,1.26,1.26,0,0,0,1.1-.57l0.53,0.42a1.89,1.89,0,0,1-1.62.77,2,2,0,0,1,0-4m1.06,1.66a1,1,0,0,0-1.51-1,1.1,1.1,0,0,0-.73,1h2.25Z" transform="translate(-2.59 -2.31)"/><path class="cls-2" d="M343,65.58c0-1.26,0-2.56,0-3.78h0.71c0,0.16,0,.47,0,0.64h0a1.28,1.28,0,0,1,1.45-.71l0,0.69a1.08,1.08,0,0,0-1.4,1.17v2H343" transform="translate(-2.59 -2.31)"/><rect class="cls-1" x="141.3" y="62.06" width="79.11" height="25.51"/><rect class="cls-5" x="145.08" y="90.45" width="71.55" height="1.98"/><rect class="cls-6" x="145.03" y="71.78" width="7.33" height="3.24"/><path class="cls-6" d="M151.18,76.24h0c1.75,0,1.75,0,1.75,1.85v0.36c0,1.76,0,1.76-1.75,1.76s-1.76,0-1.76-1.76V78.09C149.42,76.24,149.42,76.24,151.18,76.24Z" transform="translate(-2.59 -2.31)"/><rect class="cls-6" x="156.33" y="71.78" width="7.38" height="3.24"/><path class="cls-6" d="M162.52,76.24h0c1.71,0,1.71,0,1.71,1.85v0.36c0,1.76,0,1.76-1.71,1.76s-1.76,0-1.76-1.76V78.09C160.76,76.24,160.76,76.24,162.52,76.24Z" transform="translate(-2.59 -2.31)"/><rect class="cls-6" x="168.3" y="71.78" width="7.38" height="3.24"/><path class="cls-6" d="M174.44,76.24h0c1.76,0,1.76,0,1.76,1.85v0.36c0,1.76,0,1.76-1.76,1.76s-1.71,0-1.71-1.76V78.09C172.73,76.24,172.73,76.24,174.44,76.24Z" transform="translate(-2.59 -2.31)"/><rect class="cls-6" x="179.96" y="71.78" width="7.38" height="3.24"/><path class="cls-6" d="M186.1,76.24h0c1.76,0,1.76,0,1.76,1.85v0.36c0,1.76,0,1.76-1.76,1.76s-1.76,0-1.76-1.76V78.09C184.34,76.24,184.34,76.24,186.1,76.24Z" transform="translate(-2.59 -2.31)"/><path class="cls-1" d="M215.08,47.67h0c3,0.63,3,.63,2.47,3.64l-2.88,15c-0.54,3.11-.54,3.11-3.55,2.52s-2.93-.63-2.39-3.65l2.79-15.12C212.15,47.08,212.15,47.08,215.08,47.67Z" transform="translate(-2.59 -2.31)"/><path class="cls-1" d="M218.27,31h0c1.8,0.36,1.8.36,1.48,2.21l-3,15.71c-0.32,1.85-.32,1.85-2.12,1.53s-1.93-.4-1.53-2.25L216,32.5C216.34,30.66,216.34,30.66,218.27,31Z" transform="translate(-2.59 -2.31)"/><rect class="cls-6" x="196.51" y="64.04" width="21.19" height="20.74"/><rect class="cls-3" x="197.24" y="64.76" width="19.71" height="19.26"/><polygon class="cls-6" points="206.73 65.7 204.34 68.22 205.6 68.22 205.69 71.78 208.13 71.78 207.9 68.22 208.8 68.22 209.16 68.22 206.73 65.7"/><polygon class="cls-6" points="207.13 82.48 209.47 80.06 208.31 80.01 208.22 76.45 205.78 76.41 206.01 79.92 205.06 79.92 204.66 79.92 207.13 82.48"/><polygon class="cls-6" points="207.99 74.3 210.38 76.86 210.42 75.6 213.84 75.6 214.02 73.13 210.51 73.22 210.51 72.31 210.6 71.91 207.99 74.3"/><polygon class="cls-6" points="205.92 74.3 203.53 71.78 203.49 73.03 200.07 72.99 199.89 75.47 203.4 75.33 203.4 76.32 203.31 76.72 205.92 74.3"/><path class="cls-1" d="M151.63,46.36h0c3-.59,3-0.59,3.51,2.43L158,63.87c0.63,3.06.63,3.06-2.39,3.65s-3,.58-3.55-2.48L149.2,50C148.66,46.95,148.66,46.95,151.63,46.36Z" transform="translate(-2.59 -2.31)"/><path class="cls-1" d="M148.48,29.67h0c1.85-.36,1.85-0.36,2.2,1.53l2.92,15.7c0.36,1.85.36,1.85-1.48,2.25s-1.8.32-2.12-1.53l-3-15.7C146.68,30,146.68,30,148.48,29.67Z" transform="translate(-2.59 -2.31)"/><path class="cls-2" d="M175.13,100c0-1-1.19-.89-2.23-0.89v1.8c1,0,2.23.11,2.23-.91m0.8,0a1.5,1.5,0,0,1-1.37,1.49l1.58,2.59h-1l-1.43-2.51H172.9v2.51h-0.79V98.42C173.9,98.41,175.93,98.17,175.93,100Z" transform="translate(-2.59 -2.31)"/><path class="cls-2" d="M178.65,103.53a1.37,1.37,0,1,0-1.26-1.37,1.22,1.22,0,0,0,1.26,1.37m0-3.35a2,2,0,1,1-2,2A1.87,1.87,0,0,1,178.65,100.18Z" transform="translate(-2.59 -2.31)"/><path class="cls-2" d="M185.06,100.28c0,1.26,0,2.56,0,3.78h-0.71c0-.16,0-0.48,0-0.62a1.38,1.38,0,0,1-1.23.72,1.34,1.34,0,0,1-1.41-1.54v-2.34h0.75v2.09c0,0.67.19,1.16,0.86,1.16a1.09,1.09,0,0,0,1-1.24v-2h0.75" transform="translate(-2.59 -2.31)"/><path class="cls-2" d="M187.56,104.12a1,1,0,0,1-1.1-1.18v-2h-0.72v-0.61h0.72V99.2h0.74v1.08h1v0.61h-1v2c0,0.43.13,0.63,0.53,0.64a1.07,1.07,0,0,0,.44-0.1l0,0.61a1.91,1.91,0,0,1-.64.1" transform="translate(-2.59 -2.31)"/><path class="cls-2" d="M190.69,100.18c1.27,0,1.87.86,1.81,2.21h-3a1.18,1.18,0,0,0,1.23,1.15,1.26,1.26,0,0,0,1.1-.57l0.53,0.42a1.89,1.89,0,0,1-1.62.77,2,2,0,0,1,0-4m1.06,1.66a1,1,0,0,0-1.51-1,1.1,1.1,0,0,0-.73,1h2.25Z" transform="translate(-2.59 -2.31)"/><path class="cls-2" d="M193.55,104.05c0-1.26,0-2.56,0-3.78h0.71c0,0.16,0,.47,0,0.64h0a1.28,1.28,0,0,1,1.45-.71l0,0.69a1.08,1.08,0,0,0-1.4,1.17v2h-0.75" transform="translate(-2.59 -2.31)"/><path class="cls-4" d="M223.09,88.48h52.7A2.26,2.26,0,0,1,278,90.73V134a2.29,2.29,0,0,0,2.25,2.25h39.55" transform="translate(-2.59 -2.31)"/><rect class="cls-2" x="220.41" y="85.73" width="0.09" height="0.9"/><polygon class="cls-2" points="317.25 134.41 317.25 134.41 317.25 133.51 317.25 134.41"/><line class="cls-4" x1="175.95" y1="219.15" x2="175.95" y2="300.96"/><path class="cls-2" d="M179,221.46h-0.27l0.27-.09v0.09Zm-0.45,0h-0.45v-0.09Z" transform="translate(-2.59 -2.31)"/></svg>